<svg width="20" height="20" viewBox="0 0 20 20" fill="none" xmlns="http://www.w3.org/2000/svg">
<g clip-path="url(#clip0_26_664)">
<path fill-rule="evenodd" clip-rule="evenodd" d="M13.0875 4.4425C13.0875 3.62364 12.7622 2.83832 12.1832 2.2593C11.6042 1.68028 10.8188 1.355 9.99998 1.355C9.18112 1.355 8.39581 1.68028 7.81679 2.2593C7.23777 2.83832 6.91248 3.62364 6.91248 4.4425V5.06H13.0875V4.4425ZM14.3225 4.4425V5.06H18.645V17.41C18.645 18.0651 18.3847 18.6933 17.9215 19.1565C17.4583 19.6198 16.8301 19.88 16.175 19.88H3.82498C3.1699 19.88 2.54164 19.6198 2.07843 19.1565C1.61521 18.6933 1.35498 18.0651 1.35498 17.41V5.06H5.67748V4.4425C5.67748 3.2961 6.13289 2.19665 6.94351 1.38603C7.75414 0.5754 8.85358 0.119995 9.99998 0.119995C11.1464 0.119995 12.2458 0.5754 13.0564 1.38603C13.8671 2.19665 14.3225 3.2961 14.3225 4.4425ZM17.41 17.41V6.295H2.58998V17.41C2.58998 17.7375 2.7201 18.0517 2.9517 18.2833C3.18331 18.5149 3.49744 18.645 3.82498 18.645H16.175C16.5025 18.645 16.8166 18.5149 17.0483 18.2833C17.2799 18.0517 17.41 17.7375 17.41 17.41ZM9.99998 9.99135C12.055 7.87827 17.1939 11.5759 9.99998 16.3294C2.80611 11.5746 7.94494 7.87827 9.99998 9.99135Z" fill="#D136AF"/>
</g>
<defs>
<clipPath id="clip0_26_664">
<rect width="19.76" height="19.76" fill="white" transform="translate(0.120117 0.119995)"/>
</clipPath>
</defs>
</svg>
