<svg width="20" height="21" viewBox="0 0 20 21" fill="none" xmlns="http://www.w3.org/2000/svg">
<path d="M7.94182 15.7V8.29001H6.70682V15.7M10.6176 15.7V8.29001H9.38265V15.7M13.2935 15.7V8.29001H12.0585V15.7M14.1415 5.82001C15.0307 5.82001 15.7635 6.54454 15.7635 7.46667V16.5233C15.7635 17.4537 15.0307 18.17 14.1415 18.17C14.1415 18.6475 13.7545 18.9933 13.2935 18.9933C12.8818 18.9933 12.4701 18.6475 12.4701 18.17H7.53015C7.53015 18.6475 7.11848 18.9933 6.70682 18.9933C6.24575 18.9933 5.85878 18.6475 5.85878 18.17C4.96958 18.17 4.23682 17.4537 4.23682 16.5233V7.46667C4.23682 6.54454 4.96958 5.82001 5.85878 5.82001H7.53015V3.35001C7.53015 2.87247 7.90888 2.52667 8.35348 2.52667H11.6468C12.0914 2.52667 12.4701 2.87247 12.4701 3.35001V5.82001M8.76515 3.76167V5.82001H11.2351V3.76167M14.1415 16.5233V7.46667H5.85878V16.5233" fill="#28BE2E"/>
</svg>
