<svg width="26" height="26" viewBox="0 0 26 26" fill="none" xmlns="http://www.w3.org/2000/svg">
<path d="M12.9998 25.3958C13.2816 25.3958 13.5519 25.2839 13.7511 25.0846C13.9504 24.8854 14.0623 24.6151 14.0623 24.3333C14.0623 24.0515 13.9504 23.7813 13.7511 23.582C13.5519 23.3828 13.2816 23.2708 12.9998 23.2708C10.2758 23.2708 7.66342 22.1887 5.73726 20.2626C3.81111 18.3364 2.729 15.724 2.729 13C2.729 10.276 3.81111 7.66356 5.73726 5.7374C7.66342 3.81125 10.2758 2.72915 12.9998 2.72915C13.2816 2.72915 13.5519 2.61721 13.7511 2.41795C13.9504 2.21869 14.0623 1.94844 14.0623 1.66665C14.0623 1.38486 13.9504 1.1146 13.7511 0.915346C13.5519 0.716089 13.2816 0.604147 12.9998 0.604147C9.71226 0.604147 6.55933 1.91013 4.23466 4.2348C1.90999 6.55947 0.604004 9.7124 0.604004 13C0.604004 16.2876 1.90999 19.4405 4.23466 21.7652C6.55933 24.0898 9.71226 25.3958 12.9998 25.3958Z" fill="#7AA2E3"/>
<path d="M19.3323 16.4992C19.1447 16.7006 19.0425 16.967 19.0473 17.2423C19.0522 17.5175 19.1637 17.7801 19.3584 17.9748C19.553 18.1695 19.8157 18.281 20.0909 18.2858C20.3662 18.2907 20.6326 18.1885 20.834 18.0008L25.084 13.7508C25.283 13.5516 25.3947 13.2816 25.3947 13C25.3947 12.7185 25.283 12.4484 25.084 12.2492L20.834 7.99918C20.7367 7.89479 20.6194 7.81106 20.4891 7.75299C20.3588 7.69492 20.2181 7.66369 20.0754 7.66117C19.9327 7.65866 19.791 7.6849 19.6587 7.73834C19.5264 7.79178 19.4063 7.87132 19.3054 7.97221C19.2045 8.0731 19.1249 8.19328 19.0715 8.32558C19.0181 8.45788 18.9918 8.59959 18.9943 8.74225C18.9969 8.88492 19.0281 9.02561 19.0861 9.15594C19.1442 9.28627 19.2279 9.40357 19.3323 9.50085L21.769 11.9375H10.1665C9.88471 11.9375 9.61446 12.0495 9.4152 12.2487C9.21595 12.448 9.104 12.7182 9.104 13C9.104 13.2818 9.21595 13.5521 9.4152 13.7513C9.61446 13.9506 9.88471 14.0625 10.1665 14.0625H21.769L19.3323 16.4992Z" fill="#7AA2E3"/>
</svg>
