<svg width="25" height="25" viewBox="0 0 25 25" fill="none" xmlns="http://www.w3.org/2000/svg">
<path d="M24 12.5C24.0022 14.0099 23.7063 15.5054 23.1292 16.9007C22.5521 18.296 21.7052 19.5636 20.637 20.6308C19.5686 21.6994 18.3 22.547 16.9038 23.1251C15.5076 23.7032 14.0112 24.0005 12.5001 24C10.8736 24.004 9.26505 23.6606 7.78197 22.9929L2.97438 23.7041C2.73568 23.743 2.49107 23.7232 2.2618 23.6461C2.03254 23.5691 1.82554 23.4373 1.6588 23.2621C1.49205 23.0869 1.3706 22.8736 1.305 22.6408C1.23939 22.408 1.23161 22.1627 1.28234 21.9262L1.94995 17.049C1.31645 15.6165 0.99277 14.0663 1.00012 12.5C0.998056 10.9901 1.29405 9.49463 1.87114 8.09937C2.44823 6.70411 3.29506 5.43649 4.36308 4.36918C5.4315 3.30052 6.70007 2.4529 8.09626 1.87479C9.49246 1.29669 10.9889 0.999425 12.5001 1C15.5517 1.0002 18.4785 2.21204 20.637 4.36918C21.7046 5.43681 22.5511 6.7045 23.1282 8.09969C23.7053 9.49487 24.0015 10.9902 24 12.5Z" stroke="#7AA2E3" stroke-width="1.5" stroke-linecap="round" stroke-linejoin="round"/>
</svg>
