<svg width="24" height="26" viewBox="0 0 24 26" fill="none" xmlns="http://www.w3.org/2000/svg">
<path d="M11.9493 20.9201H20.8531C21.1999 20.9396 21.5458 20.8699 21.8579 20.7177C22.1701 20.5655 22.438 20.3359 22.6363 20.0507C22.8345 19.7656 22.9564 19.4344 22.9903 19.0888C23.0242 18.7432 22.969 18.3946 22.83 18.0764C22.3593 16.6539 20.4831 14.9477 20.4831 13.2689C20.4831 9.5426 20.4831 8.56201 18.6474 6.3707C18.0527 5.66608 17.3164 5.09453 16.4862 4.69323L15.4625 4.19639C15.2901 4.0934 15.1415 3.95512 15.0263 3.79063C14.9112 3.62614 14.8321 3.43915 14.7944 3.24194C14.692 2.57829 14.3411 1.97839 13.8128 1.56393C13.2844 1.14947 12.6183 0.951478 11.9493 1.01011C11.2925 0.970663 10.6445 1.17748 10.1319 1.59018C9.61941 2.00287 9.2791 2.5918 9.1775 3.24194C9.1315 3.44567 9.04124 3.63678 8.91312 3.80172C8.78501 3.96667 8.62217 4.10141 8.43617 4.19639L7.41242 4.69323C6.58275 5.09469 5.84684 5.66623 5.2525 6.3707C3.41813 8.56201 3.41813 9.5426 3.41813 13.2689C3.41813 14.9477 1.62691 16.4826 1.15622 17.9901C0.872501 18.9014 0.715605 20.9201 3.09126 20.9201H11.9493Z" stroke="#7AA2E3" stroke-width="1.5" stroke-linecap="round" stroke-linejoin="round"/>
<path d="M16.2157 20.9201C16.2273 21.4835 16.1249 22.0435 15.9146 22.5663C15.7043 23.0892 15.3905 23.5641 14.992 23.9626C14.5935 24.3611 14.1186 24.6749 13.5957 24.8852C13.0729 25.0955 12.5129 25.1979 11.9495 25.1864C11.386 25.1983 10.826 25.0961 10.303 24.8859C9.78011 24.6757 9.30512 24.3619 8.90666 23.9633C8.5082 23.5647 8.19451 23.0897 7.98449 22.5667C7.77446 22.0437 7.67244 21.4836 7.68456 20.9201" stroke="#7AA2E3" stroke-width="1.5" stroke-linecap="round" stroke-linejoin="round"/>
</svg>
