<svg width="22" height="20" viewBox="0 0 22 20" fill="none" xmlns="http://www.w3.org/2000/svg">
<path fill-rule="evenodd" clip-rule="evenodd" d="M15.752 2.59C15.3971 2.59 15.0566 2.72011 14.8057 2.95172C14.5547 3.18333 14.4137 3.49745 14.4137 3.825V16.175C14.4137 16.5025 14.5547 16.8167 14.8057 17.0483C15.0566 17.2799 15.3971 17.41 15.752 17.41H17.5364C17.8914 17.41 18.2318 17.2799 18.4828 17.0483C18.7338 16.8167 18.8748 16.5025 18.8748 16.175V3.825C18.8748 3.49745 18.7338 3.18333 18.4828 2.95172C18.2318 2.72011 17.8914 2.59 17.5364 2.59H15.752ZM15.3059 3.825C15.3059 3.71582 15.3529 3.61111 15.4366 3.5339C15.5202 3.4567 15.6337 3.41333 15.752 3.41333H17.5364C17.6548 3.41333 17.7682 3.4567 17.8519 3.5339C17.9355 3.61111 17.9825 3.71582 17.9825 3.825V16.175C17.9825 16.2842 17.9355 16.3889 17.8519 16.4661C17.7682 16.5433 17.6548 16.5867 17.5364 16.5867H15.752C15.6337 16.5867 15.5202 16.5433 15.4366 16.4661C15.3529 16.3889 15.3059 16.2842 15.3059 16.175V3.825ZM8.61426 8.765C8.61426 8.43745 8.75526 8.12333 9.00624 7.89172C9.25723 7.66011 9.59764 7.53 9.95258 7.53H11.737C12.092 7.53 12.4324 7.66011 12.6834 7.89172C12.9343 8.12333 13.0753 8.43745 13.0753 8.765V16.175C13.0753 16.5025 12.9343 16.8167 12.6834 17.0483C12.4324 17.2799 12.092 17.41 11.737 17.41H9.95258C9.59764 17.41 9.25723 17.2799 9.00624 17.0483C8.75526 16.8167 8.61426 16.5025 8.61426 16.175V8.765ZM9.95258 8.35333C9.83427 8.35333 9.7208 8.3967 9.63714 8.4739C9.55348 8.55111 9.50648 8.65582 9.50648 8.765V16.175C9.50648 16.2842 9.55348 16.3889 9.63714 16.4661C9.7208 16.5433 9.83427 16.5867 9.95258 16.5867H11.737C11.8553 16.5867 11.9688 16.5433 12.0525 16.4661C12.1361 16.3889 12.1831 16.2842 12.1831 16.175V8.765C12.1831 8.65582 12.1361 8.55111 12.0525 8.4739C11.9688 8.3967 11.8553 8.35333 11.737 8.35333H9.95258Z" fill="#FFA24F"/>
<path d="M2.81494 13.705C2.81494 13.3775 2.95594 13.0633 3.20693 12.8317C3.45791 12.6001 3.79832 12.47 4.15327 12.47H5.9377C6.29265 12.47 6.63306 12.6001 6.88404 12.8317C7.13503 13.0633 7.27603 13.3775 7.27603 13.705V16.175C7.27603 16.5025 7.13503 16.8167 6.88404 17.0483C6.63306 17.2799 6.29265 17.41 5.9377 17.41H4.15327C3.79832 17.41 3.45791 17.2799 3.20693 17.0483C2.95594 16.8167 2.81494 16.5025 2.81494 16.175V13.705Z" fill="#FFA24F"/>
</svg>
